# xmcd CD database file
#
# Track frame offsets:
#	150
#	28276
#	55981
#	82614
#	100095
#	118613
#	139323
#	174735
#	216152
#	240301
#	260108
#
# Disc length: 3809 seconds
#
# Revision: 0
# Processed by: cddbd v1.5.1PL0 Copyright (c) Steve Scherf et al.
# Submitted via: CDex 1.51
#
DISCID=980edf0b
DTITLE=Sylken - Dreamlife
DYEAR=2004
DGENRE=New Age
TTITLE0=Night Wings
TTITLE1=First Light Falling
TTITLE2=The Ocean Of Dreams
TTITLE3=In Astral Flight
TTITLE4=The In Between
TTITLE5=Here And Now
TTITLE6=Sings The Heart
TTITLE7=Adrift In A Sea Of Light
TTITLE8=Memories To Come
TTITLE9=Awakening The Dreamlife
TTITLE10=Vistas
EXTD=YEAR: 2004
EXTT0=
EXTT1=
EXTT2=
EXTT3=
EXTT4=
EXTT5=
EXTT6=
EXTT7=
EXTT8=
EXTT9=
EXTT10=
PLAYORDER=
